HIERARCHY
ROOT Hips
{
	OFFSET 0.000000 0.000000 0.000000
	CHANNELS 6 Xposition Yposition Zposition Zrotation Yrotation Xrotation 
	JOINT LHipJoint
	{
		OFFSET 0.000000 0.000000 0.000000
		CHANNELS 3 Zrotation Yrotation Xrotation
		JOINT LeftUpLeg
		{
			OFFSET 1.363060 -1.794630 0.839290
			CHANNELS 3 Zrotation Yrotation Xrotation
			JOINT LeftLeg
			{
				OFFSET 2.448110 -6.726130 0.000000
				CHANNELS 3 Zrotation Yrotation Xrotation
				JOINT LeftFoot
				{
					OFFSET 2.562200 -7.039590 0.000000
					CHANNELS 3 Zrotation Yrotation Xrotation
					JOINT LeftToeBase
					{
						OFFSET 0.157640 -0.433110 2.322550
						CHANNELS 3 Zrotation Yrotation Xrotation
						End Site
						{
							OFFSET 0.000000 0.000000 0.000000
						}
					}
				}
			}
		}
	}
	JOINT RHipJoint
	{
		OFFSET 0.000000 0.000000 0.000000
		CHANNELS 3 Zrotation Yrotation Xrotation
		JOINT RightUpLeg
		{
			OFFSET -1.305520 -1.794630 0.839290
			CHANNELS 3 Zrotation Yrotation Xrotation
			JOINT RightLeg
			{
				OFFSET -2.542530 -6.985550 0.000000
				CHANNELS 3 Zrotation Yrotation Xrotation
				JOINT RightFoot
				{
					OFFSET -2.568260 -7.056230 0.000000
					CHANNELS 3 Zrotation Yrotation Xrotation
					JOINT RightToeBase
					{
						OFFSET -0.164730 -0.452590 2.363150
						CHANNELS 3 Zrotation Yrotation Xrotation
						End Site
						{
							OFFSET 0.000000 0.000000 0.000000
						}
					}
				}
			}
		}
	}
	JOINT LowerBack
	{
		OFFSET 0.000000 0.000000 0.000000
		CHANNELS 3 Zrotation Yrotation Xrotation
		JOINT Spine
		{
			OFFSET 0.028270 2.035590 -0.193380
			CHANNELS 3 Zrotation Yrotation Xrotation
			JOINT Spine1
			{
				OFFSET 0.056720 2.048850 -0.042750
				CHANNELS 3 Zrotation Yrotation Xrotation
				JOINT Neck
				{
					OFFSET 0.000000 0.000000 0.000000
					CHANNELS 3 Zrotation Yrotation Xrotation
					JOINT Neck1
					{
						OFFSET -0.054170 1.746240 0.172020
						CHANNELS 3 Zrotation Yrotation Xrotation
						JOINT Head
						{
							OFFSET 0.104070 1.761360 -0.123970
							CHANNELS 3 Zrotation Yrotation Xrotation
							End Site
							{
								OFFSET 0.000000 0.000000 0.000000
							}
						}
					}
				}
				JOINT LeftShoulder
				{
					OFFSET 0.000000 0.000000 0.000000
					CHANNELS 3 Zrotation Yrotation Xrotation
					JOINT LeftArm
					{
						OFFSET 3.362410 1.200890 -0.311210
						CHANNELS 3 Zrotation Yrotation Xrotation
						JOINT LeftForeArm
						{
							OFFSET 4.983000 -0.000000 -0.000000
							CHANNELS 3 Zrotation Yrotation Xrotation
							JOINT LeftHand
							{
								OFFSET 3.483560 -0.000000 -0.000000
								CHANNELS 3 Zrotation Yrotation Xrotation
								JOINT LeftFingerBase
								{
									OFFSET 0.000000 0.000000 0.000000
									CHANNELS 3 Zrotation Yrotation Xrotation
									JOINT LeftHandIndex1
									{
										OFFSET 0.715260 -0.000000 -0.000000
										CHANNELS 3 Zrotation Yrotation Xrotation
										End Site
										{
											OFFSET 0.000000 0.000000 0.000000
										}
									}
								}
								JOINT LThumb
								{
									OFFSET 0.000000 0.000000 0.000000
									CHANNELS 3 Zrotation Yrotation Xrotation
									End Site
									{
										OFFSET 0.000000 0.000000 0.000000
									}
								}
							}
						}
					}
				}
				JOINT RightShoulder
				{
					OFFSET 0.000000 0.000000 0.000000
					CHANNELS 3 Zrotation Yrotation Xrotation
					JOINT RightArm
					{
						OFFSET -3.136600 1.374050 -0.404650
						CHANNELS 3 Zrotation Yrotation Xrotation
						JOINT RightForeArm
						{
							OFFSET -5.241900 -0.000000 -0.000000
							CHANNELS 3 Zrotation Yrotation Xrotation
							JOINT RightHand
							{
								OFFSET -3.444170 -0.000000 -0.000000
								CHANNELS 3 Zrotation Yrotation Xrotation
								JOINT RightFingerBase
								{
									OFFSET 0.000000 0.000000 0.000000
									CHANNELS 3 Zrotation Yrotation Xrotation
									JOINT RightHandIndex1
									{
										OFFSET -0.622530 -0.000000 -0.000000
										CHANNELS 3 Zrotation Yrotation Xrotation
										End Site
										{
											OFFSET 0.000000 0.000000 0.000000
										}
									}
								}
								JOINT RThumb
								{
									OFFSET 0.000000 0.000000 0.000000
									CHANNELS 3 Zrotation Yrotation Xrotation
									End Site
									{
										OFFSET 0.000000 0.000000 0.000000
									}
								}
							}
						}
					}
				}
			}
		}
	}
}
MOTION
Frames: 4
Frame Time: 0.008333
-0.075802 17.035584 -3.462511 -0.941990 -8.659736 8.635074 11.402703 1.906463 -2.569328 -30.393692 -13.636087 -6.357988 -0.867989 8.075578 20.879535 0.119869 7.013070 -16.794598 0.048800 1.425800 3.921100 -13.960140 -2.827494 -3.237657 35.797190 10.597396 -7.963783 0.527500 -9.235718 25.083531 0.154733 -10.352823 -19.239893 -0.068900 -1.694000 4.660800 2.346203 -1.886456 -4.304648 1.164049 -2.861789 -5.316502 -1.617806 -1.590529 -0.618591 -1.384533 -6.809183 -18.806551 5.787424 -9.790437 16.208493 -1.367800 -3.226700 15.377400 13.926583 -9.769968 2.438494 -101.987016 8.330165 9.147686 21.924502 -31.436074 -4.140356 0.182625 4.475327 22.199836 2.954847 17.476791 1.043000 -7.125000 0.000000 0.000000 -20.372500 42.316900 1.413000 -13.846813 11.911622 2.572029 94.186187 -1.429607 25.026983 -18.189372 29.337995 -2.813165 -0.772847 -3.007238 18.476441 -7.690052 -10.269377 0.992600 7.125000 0.000000 0.000000 15.853200 -36.762300 3.315000 
-0.075802 17.036124 -3.466398 -0.969282 -8.676402 8.653755 11.399514 1.904979 -2.567126 -30.350325 -13.647704 -6.406856 -0.864999 8.087687 20.904272 0.119391 7.021077 -16.803631 0.050700 1.453600 3.997900 -13.965658 -2.824586 -3.236426 35.827223 10.613246 -7.978425 0.535507 -9.228316 25.049587 0.155750 -10.338144 -19.205685 -0.070900 -1.718000 4.726900 2.373269 -1.860919 -4.247734 1.166773 -2.827865 -5.318115 -1.666195 -1.576335 -0.628306 -1.194147 -6.555732 -18.875063 5.768047 -9.476275 16.351596 -1.411900 -3.053000 15.530200 13.966352 -9.762162 2.420520 -101.962322 8.318299 8.956751 21.807954 -31.321530 -4.112286 0.202106 4.479874 22.327202 3.011827 17.493357 1.055200 -7.125000 0.000000 0.000000 -20.332100 42.329200 1.403500 -13.856465 11.929192 2.550204 94.239465 -1.377341 24.598721 -17.987464 29.138898 -2.773627 -0.831846 -2.955446 18.827692 -7.934804 -10.018650 0.985700 7.125000 0.000000 0.000000 15.649000 -36.560600 3.349500 
-0.074831 17.036880 -3.469854 -0.968319 -8.664590 8.664856 11.398125 1.905705 -2.563670 -30.340589 -13.652202 -6.451002 -0.864156 8.097007 20.919258 0.119402 7.004798 -16.782306 0.050400 1.449300 3.985900 -13.963227 -2.824508 -3.239748 35.810546 10.567707 -8.009870 0.538527 -9.223161 25.030516 0.151613 -10.284665 -19.165350 -0.069500 -1.701100 4.680400 2.386982 -1.839185 -4.192837 1.163549 -2.793605 -5.319211 -1.721030 -1.562372 -0.629649 -1.023308 -6.388862 -18.958414 5.725320 -9.286552 16.481285 -1.476500 -2.934200 15.679800 13.994584 -9.753517 2.400922 -101.932444 8.302434 8.785243 21.701529 -31.209450 -4.085286 0.211156 4.486136 22.471584 3.003275 17.523063 1.056300 -7.125000 0.000000 0.000000 -20.343400 42.351700 1.392500 -13.857979 11.946559 2.539107 94.253108 -1.378354 24.312810 -17.905770 29.057838 -2.763818 -0.843745 -2.967747 18.946123 -7.960608 -10.114833 1.000200 7.125000 0.000000 0.000000 15.645900 -36.640600 3.317100 
-0.074399 17.037096 -3.473201 -0.967506 -8.648299 8.685735 11.398051 1.904038 -2.563378 -30.328373 -13.671515 -6.498309 -0.863668 8.107371 20.934091 0.118531 6.995446 -16.761147 0.050000 1.443600 3.970200 -13.963871 -2.822078 -3.243785 35.799393 10.559207 -8.031383 0.542558 -9.217821 25.008378 0.146872 -10.251346 -19.162590 -0.071800 -1.729100 4.757500 2.403446 -1.813519 -4.166490 1.159142 -2.754625 -5.312157 -1.802290 -1.545377 -0.591960 -0.866756 -6.109929 -19.017318 5.750429 -8.918285 16.607748 -1.466500 -2.746300 15.813700 14.014799 -9.736772 2.394650 -101.863102 8.292029 8.722348 21.692770 -31.192707 -4.085033 0.212403 4.488160 22.442360 3.017177 17.541756 1.060200 -7.125000 0.000000 0.000000 -20.338700 42.367400 1.383900 -13.867634 11.948388 2.520436 94.312403 -1.328080 23.894632 -17.739815 28.902002 -2.728119 -0.877497 -2.916026 19.248346 -8.076699 -9.849743 0.978000 7.125000 0.000000 0.000000 15.529500 -36.425500 3.375400 
